PathFileType  4	(X/Y/Z) C:\Users\antoi\Documents\MyRepositories\mobilecap\ResultsAnalysis
DataRate	CameraRate	NumFrames	NumMarkers	Units	OrigDataRate	OrigDataStartFrame	OrigNumFrames
100.0	100.0	6	51	mm	100.0	1	143
Frame#	Time	r_knee			r_shank_antsup			r_ankle			r_calc			r_5meta			r_toe			L_knee			L_shank_antsup			L_ankle			L_calc			L_5meta			L_toe			r_sh2			r_sh3			r_sh4			L_sh2			L_sh3			r_thigh1			r_thigh2			r_thigh3			r_thigh4			r_thigh5			L_thigh1			L_thigh2			L_thigh3			L_thigh4			r.ASIS			r.PSIS			L.ASIS			L.PSIS			C7			R_Shoulder			L_Shoulder			R_Sternum			L_Sternum			R_humerus			R_elbow_med			R_elbow_lat			R_forearm			R_wrist_radius			R_wrist_ulna			L_humerus			L_elbow_med			L_elbow_lat			L_forearm			L_wrist_radius			L_wrist_ulna			R_HJC			L_HJC			R_HJC_reg			L_HJC_reg			
		X1	Y1	Z1	X2	Y2	Z2	X3	Y3	Z3	X4	Y4	Z4	X5	Y5	Z5	X6	Y6	Z6	X7	Y7	Z7	X8	Y8	Z8	X9	Y9	Z9	X10	Y10	Z10	X11	Y11	Z11	X12	Y12	Z12	X13	Y13	Z13	X14	Y14	Z14	X15	Y15	Z15	X16	Y16	Z16	X17	Y17	Z17	X18	Y18	Z18	X19	Y19	Z19	X20	Y20	Z20	X21	Y21	Z21	X22	Y22	Z22	X23	Y23	Z23	X24	Y24	Z24	X25	Y25	Z25	X26	Y26	Z26	X27	Y27	Z27	X28	Y28	Z28	X29	Y29	Z29	X30	Y30	Z30	X31	Y31	Z31	X32	Y32	Z32	X33	Y33	Z33	X34	Y34	Z34	X35	Y35	Z35	X36	Y36	Z36	X37	Y37	Z37	X38	Y38	Z38	X39	Y39	Z39	X40	Y40	Z40	X41	Y41	Z41	X42	Y42	Z42	X43	Y43	Z43	X44	Y44	Z44	X45	Y45	Z45	X46	Y46	Z46	X47	Y47	Z47	X48	Y48	Z48	X49	Y49	Z49	X50	Y50	Z50	X51	Y51	Z51	

1	0.00000000	-108.75569	490.98552	-69.64375	-36.49521	423.66488	-77.58605	40.05255	102.87297	-95.17967	5.15896	43.32191	-148.06048	169.20474	114.03815	-55.67379	178.83124	162.85606	-105.46968	-429.94714	488.41146	-344.55187	-433.58178	394.72943	-328.03992	-640.66475	129.34802	-306.19811	-723.78559	109.27701	-259.24326	-561.20194	40.37528	-344.84369	-507.68668	53.14609	-289.14148	5.30421	318.19025	-82.90398	-95.23163	397.94774	-37.61518	-61.21627	288.33110	-38.09058	-500.49791	440.83108	-369.01909	-561.77326	335.82081	-369.26796	-177.19127	759.66804	-43.67652	-128.34400	663.08303	-60.83569	-162.78189	614.48762	-26.83034	-277.78710	704.90014	-21.55366	-215.06897	605.54617	-44.06414	-273.42253	700.43354	-369.98867	-304.31773	566.97497	-341.72479	-373.92331	715.91609	-406.96757	-407.07682	592.20527	-366.93962	-199.00942	927.83218	-92.94350	-407.39686	955.13291	-165.50805	-205.56730	921.01127	-352.19867	-407.38582	965.24406	-258.22976	-339.29282	1419.04451	-226.96401	-274.11690	1378.26789	-57.73147	-250.11781	1377.93004	-377.95458	-218.99140	1335.98709	-197.86811	-218.22286	1337.81175	-243.65278	-254.36614	1245.15425	-2.91240	-358.58685	1053.90311	-39.30778	-353.81200	1067.01323	26.75572	-301.13600	1000.37505	54.21693	-248.00357	837.65667	33.21459	-286.39310	837.34206	65.88639	-219.82205	1238.09415	-434.18723	-301.97760	1039.04522	-412.14468	-267.86561	1053.98321	-481.83583	-211.71586	1000.92720	-482.21518	-149.15999	836.86414	-450.65077	-176.83803	835.53423	-493.94387	-282.61354	839.26941	-115.42592	-289.17023	838.76810	-304.87306	-270.14901	832.00615	-139.19848	-270.12992	850.57004	-309.40806	
2	0.01000000	-92.75869	489.46028	-70.97074	-21.45743	420.57028	-79.54343	47.60337	99.88128	-96.44053	10.24526	44.57527	-149.69769	176.23032	105.39655	-56.38523	189.28370	152.92157	-106.45965	-416.12052	486.33938	-344.52910	-421.83823	392.42656	-327.84120	-636.60673	133.14789	-306.84082	-720.19136	115.93452	-259.72137	-560.20236	40.83979	-344.94272	-506.07385	52.59018	-289.25937	18.16974	314.36590	-84.89215	-80.62935	395.87092	-39.30515	-48.49689	285.64568	-40.12072	-487.22682	440.57391	-368.80793	-551.56138	337.38627	-369.36730	-160.99788	758.17918	-43.12080	-112.03250	661.85783	-60.86101	-146.76219	612.90251	-27.60824	-261.30970	703.10160	-21.74572	-198.78682	604.16129	-44.95474	-259.32132	698.53374	-370.10118	-290.13617	565.00760	-342.33331	-359.99950	714.46971	-405.90676	-393.37946	590.89126	-365.91179	-183.31681	925.99342	-92.73180	-391.99999	953.06005	-164.34936	-190.61721	919.24296	-352.04125	-391.79818	963.34502	-256.83737	-326.68386	1416.99575	-222.61538	-260.88656	1375.55910	-53.84730	-237.65964	1377.82546	-373.93882	-205.77131	1334.46032	-194.36123	-204.98641	1336.65863	-240.02546	-240.69874	1242.10634	-0.17197	-344.63856	1051.10424	-39.00953	-340.45952	1063.58607	27.22423	-288.41514	996.67262	54.57321	-235.50078	833.96744	32.84549	-274.95137	833.55708	65.42610	-206.50594	1238.38775	-430.76609	-288.88726	1039.37808	-409.89687	-255.07852	1054.64537	-479.77753	-199.16695	1001.44241	-480.77559	-137.40894	836.74576	-451.07966	-165.06065	835.99359	-494.31017	-266.73876	837.31491	-114.85951	-274.02249	836.94938	-304.27981	-254.86580	829.91392	-139.32544	-254.48961	848.83537	-309.55313	
3	0.02000000	-76.86235	488.14966	-72.12128	-6.53616	417.71520	-81.27277	54.97719	97.05289	-97.61250	15.15698	45.95793	-151.21761	183.02925	96.75705	-57.19059	199.45431	142.94013	-107.53919	-401.81783	484.14215	-344.48359	-409.65613	390.05239	-327.64437	-632.18134	137.12780	-307.45479	-716.19187	122.96233	-260.13040	-559.13322	41.41190	-345.01685	-504.41954	51.99586	-289.35861	30.94988	310.79305	-86.69144	-66.17104	394.01928	-40.87112	-35.92034	283.19930	-42.08967	-473.46536	440.26386	-368.56858	-540.90122	338.98460	-369.43746	-144.80574	756.91514	-42.63658	-95.76182	660.81947	-60.89531	-130.76037	611.59899	-28.35884	-244.93687	701.60172	-21.88731	-182.55293	602.97233	-45.76728	-244.92754	696.70366	-370.13382	-275.52680	563.06423	-342.88305	-345.81578	712.98094	-404.79275	-379.22915	589.42968	-364.91239	-167.54215	924.25847	-92.41341	-376.55643	951.14817	-163.15797	-175.53212	917.51764	-351.78229	-376.16000	961.56232	-255.50050	-314.05968	1415.07145	-218.22867	-247.63308	1372.98519	-49.91387	-225.22138	1377.81154	-369.91710	-192.52545	1333.09440	-190.80534	-191.72469	1335.66132	-236.36787	-226.98764	1239.17159	2.59745	-330.60007	1048.41639	-38.62487	-326.97444	1060.27357	27.76506	-275.54238	993.08177	54.99459	-222.88818	830.36362	32.51086	-263.26194	829.87384	64.97468	-193.25624	1238.75518	-427.35597	-275.80733	1039.74636	-407.58013	-242.33606	1055.35994	-477.64986	-186.66375	1002.00893	-479.30567	-125.68233	836.69220	-451.48019	-153.34952	836.50930	-494.63371	-250.84731	835.49084	-114.20733	-258.78893	835.20648	-303.60414	-239.52523	827.96990	-139.29265	-238.78591	847.15068	-309.55350	
4	0.03000000	-61.12863	487.24437	-72.95749	8.19002	415.29189	-82.58926	62.00423	94.54048	-98.60613	19.73394	47.54389	-152.50840	189.40568	88.21154	-58.15306	209.06019	132.97463	-108.77476	-386.62060	481.75101	-344.39763	-396.64010	387.54906	-327.47254	-627.03578	141.43988	-308.00287	-711.39611	130.69786	-260.40360	-557.92668	42.20032	-345.04259	-502.69718	51.33383	-289.42154	43.56325	307.67234	-88.14531	-51.94983	392.59160	-42.18776	-23.60596	281.20094	-43.89501	-458.78134	439.86225	-368.29226	-529.39331	340.65195	-369.45420	-128.62162	756.08930	-42.26110	-79.56732	660.15211	-60.92955	-114.76950	610.81675	-29.02826	-228.72889	700.65296	-21.91592	-166.38967	602.15750	-46.41035	-229.98710	695.00580	-370.01440	-260.10911	561.17117	-343.31488	-331.14350	711.40565	-403.58906	-364.23272	587.69879	-363.96515	-151.64013	922.73636	-91.90825	-361.04439	949.55898	-161.93662	-160.21553	915.88546	-351.33199	-360.44043	959.99179	-254.28906	-301.39917	1413.38107	-213.77885	-234.33627	1370.65505	-45.90010	-212.81260	1377.96373	-365.88770	-179.23807	1332.02267	-187.16584	-178.42255	1334.94778	-232.65594	-213.19435	1236.45137	5.41589	-316.39029	1045.93103	-38.08623	-313.24640	1057.17354	28.43794	-262.39491	989.70004	55.53355	-210.07106	826.92869	32.24395	-251.14698	826.38373	64.55356	-180.13962	1239.25713	-423.98020	-262.74683	1040.18421	-405.13140	-229.67465	1056.16858	-475.39533	-174.24339	1002.67030	-477.77695	-114.00402	836.75764	-451.82994	-141.75271	837.13223	-494.87890	-234.94715	833.92955	-113.40342	-243.40673	833.61260	-302.78316	-224.11138	826.35304	-138.95163	-222.98777	845.56296	-309.26746	
5	0.04000000	-45.57322	486.88454	-73.40789	22.68377	413.41093	-83.39164	68.52187	92.46823	-99.34450	23.83925	49.32007	-153.48116	195.20311	79.97616	-59.27494	217.82722	123.24462	-110.18197	-370.21051	479.17212	-344.26605	-382.47864	384.88594	-327.37825	-620.84546	146.18965	-308.43864	-705.43290	139.40877	-260.48192	-556.50956	43.31993	-344.99868	-500.89223	50.59843	-289.43326	55.92242	305.11799	-89.16161	-37.99345	391.73435	-43.13974	-11.64447	279.80226	-45.38827	-442.84783	439.35182	-367.99806	-516.72420	342.42649	-369.40228	-112.47150	755.87894	-41.97852	-63.48352	660.01948	-60.92978	-98.76690	610.71134	-29.52687	-212.68762	700.42428	-21.75828	-150.29806	601.85736	-46.77828	-214.32389	693.49129	-369.68685	-243.59949	559.35966	-343.57554	-315.82014	709.70189	-402.28743	-348.10922	585.62219	-363.08923	-135.63445	921.54327	-91.18005	-345.48968	948.44225	-160.73739	-144.64446	914.40711	-350.62129	-344.65092	958.69434	-253.28821	-288.68561	1412.00748	-209.26807	-220.99456	1368.63916	-41.80822	-200.43406	1378.33272	-361.85953	-165.91731	1331.33129	-183.43497	-165.08983	1334.59772	-228.88088	-199.29798	1234.02898	8.28469	-301.95637	1043.71167	-37.35728	-299.21086	1054.35912	29.28051	-248.90507	986.60515	56.22086	-196.98873	823.74232	32.07530	-238.53674	823.16390	64.20153	-167.22324	1239.93394	-420.68145	-249.71946	1040.72567	-402.49875	-217.12659	1057.09675	-472.97810	-161.93868	1003.45777	-476.16635	-102.40341	836.97986	-452.11415	-130.30064	837.90276	-495.02031	-219.09040	832.76122	-112.41317	-227.85952	832.23457	-301.78431	-208.67512	825.27415	-138.18271	-207.12198	844.11748	-308.56684	
6	0.05000000	-30.16637	487.14084	-73.47597	36.93766	412.09113	-83.68905	74.37810	90.90995	-99.78682	27.36627	51.19174	-154.09415	200.29757	72.35037	-60.48310	225.51849	114.08363	-111.70633	-352.35288	476.44901	-344.10689	-366.94601	382.06228	-327.43600	-613.31412	151.44467	-308.71618	-697.93210	149.28580	-260.32145	-554.79764	44.90403	-344.86484	-498.98686	49.82365	-289.38486	67.93230	303.14904	-89.73606	-24.26831	391.52602	-43.64382	-0.09174	279.08255	-46.41155	-425.43704	438.73055	-367.72804	-502.65948	344.34510	-369.27799	-96.39318	756.39611	-41.72199	-47.53289	660.53922	-60.84521	-82.72591	611.33133	-29.74334	-196.75196	700.98578	-21.34481	-134.26753	602.15980	-46.76421	-197.84320	692.19738	-369.11673	-225.81978	557.66449	-343.63059	-299.75215	707.83455	-400.90765	-330.69361	583.17148	-362.30276	-119.60978	920.80037	-90.23569	-329.95788	947.91209	-159.64886	-128.86451	913.14934	-349.60261	-328.83966	957.68967	-252.58404	-275.91076	1411.00055	-204.72869	-207.62699	1366.97127	-37.67378	-188.07201	1378.94422	-357.85166	-152.58862	1331.05285	-179.63196	-151.75517	1334.63642	-225.05142	-185.29014	1231.96651	11.18395	-287.27469	1041.79572	-36.43310	-284.84509	1051.87793	30.30663	-235.05354	983.85399	57.06426	-183.61258	820.87308	32.03105	-225.44591	820.27555	63.96952	-154.55528	1240.80821	-417.51640	-236.73577	1041.40825	-399.64004	-204.71661	1058.15622	-470.38418	-149.77551	1004.39159	-474.45723	-90.90876	837.38205	-452.32281	-119.00929	838.84886	-495.04099	-203.35782	832.10412	-111.22978	-212.16900	831.12645	-300.60080	-193.31261	824.94570	-136.91203	-191.25610	842.86027	-307.35046	
